# Blender 4.0.2
# www.blender.org
mtllib pizza_oven.mtl
o Cube
v -1.000000 -1.000000 1.000000
v -1.000000 1.000000 1.000000
v -1.000000 -1.000000 -1.000000
v -1.000000 1.000000 -1.000000
v 1.000000 -1.000000 1.000000
v 1.000000 1.000000 1.000000
v 1.000000 -1.000000 -1.000000
v 1.000000 1.000000 -1.000000
v -1.000000 1.330042 -1.000000
v 1.000000 1.330042 -1.000000
v -1.000000 1.330042 1.000000
v 1.000000 1.330042 1.000000
v 0.000000 0.000000 0.000000
v 0.000000 0.000000 0.000000
v 0.000000 0.000000 0.000000
v 0.000000 0.000000 0.000000
v 1.000000 1.000000 -1.000000
v 1.000000 -1.000000 -1.000000
v 1.000000 -1.000000 1.000000
v 1.000000 1.000000 1.000000
v 1.026075 0.430376 0.862352
v 1.000000 0.430376 0.862352
v 1.026075 -0.414377 0.862352
v 1.000000 -0.414377 0.862352
v 1.000000 -0.414377 -0.859152
v 1.026075 -0.414377 -0.859152
v 1.000000 0.430376 -0.859152
v 1.026075 0.430376 -0.859152
v -1.000000 0.000000 -1.000000
v 1.000000 0.000000 -1.000000
v -1.000000 0.000000 -1.000000
v 1.000000 0.000000 -1.000000
v 0.985845 0.018042 -0.917225
v 0.985845 0.018042 -0.917225
v 1.026075 -0.414377 0.862352
v 1.026075 0.430376 0.862352
v 1.026075 0.430376 -0.859152
v 1.026075 -0.414377 -0.859152
v -1.000000 1.330042 1.000000
v -0.238750 2.091292 0.238750
v -0.238750 2.091292 -0.238750
v -1.000000 1.330042 -1.000000
v 0.238750 2.091292 0.238750
v 1.000000 1.330042 1.000000
v 0.238750 2.091292 -0.238750
v 1.000000 1.330042 -1.000000
v 0.000000 0.000000 0.000000
v 0.000000 0.000000 0.000000
v 0.000000 0.000000 0.000000
v 0.000000 0.000000 0.000000
v 1.000000 0.602107 0.752190
v 1.000000 0.915503 0.752190
v 1.000000 0.602107 -0.758419
v 1.000000 0.915503 -0.758419
v -0.888736 0.602107 0.752190
v -0.888736 0.915503 0.752190
v -0.888736 0.602107 -0.758419
v -0.888736 0.915503 -0.758419
v 0.000000 0.000000 -1.000000
v -0.195090 0.000000 -0.980785
v -0.382683 0.000000 -0.923880
v -0.555570 0.000000 -0.831470
v -0.707107 0.000000 -0.707107
v -0.831470 0.000000 -0.555570
v -0.923880 0.000000 -0.382683
v -0.980785 0.000000 -0.195090
v -1.000000 0.000000 0.000000
v -0.980785 0.000000 0.195090
v -0.923880 0.000000 0.382683
v -0.831470 0.000000 0.555570
v -0.707107 0.000000 0.707107
v -0.555570 0.000000 0.831470
v -0.382683 0.000000 0.923880
v -0.195090 0.000000 0.980785
v 0.000000 0.000000 1.000000
v 0.195090 0.000000 0.980785
v 0.382683 0.000000 0.923880
v 0.555570 0.000000 0.831470
v 0.707107 0.000000 0.707107
v 0.831470 0.000000 0.555570
v 0.923880 0.000000 0.382683
v 0.980785 0.000000 0.195090
v 1.000000 0.000000 0.000000
v 0.980785 0.000000 -0.195090
v 0.923880 0.000000 -0.382683
v 0.831470 0.000000 -0.555570
v 0.707107 0.000000 -0.707107
v 0.555570 0.000000 -0.831470
v 0.382683 0.000000 -0.923880
v 0.195090 0.000000 -0.980785
v 0.000000 0.000000 -1.000000
v -0.195090 0.000000 -0.980785
v -0.382683 0.000000 -0.923880
v -0.555570 0.000000 -0.831470
v -0.707107 0.000000 -0.707107
v -0.831470 0.000000 -0.555570
v -0.923880 0.000000 -0.382683
v -0.980785 0.000000 -0.195090
v -1.000000 0.000000 0.000000
v -0.980785 0.000000 0.195090
v -0.923880 0.000000 0.382683
v -0.831470 0.000000 0.555570
v -0.707107 0.000000 0.707107
v -0.555570 0.000000 0.831470
v -0.382683 0.000000 0.923880
v -0.195090 0.000000 0.980785
v 0.000000 0.000000 1.000000
v 0.195090 0.000000 0.980785
v 0.382683 0.000000 0.923880
v 0.555570 0.000000 0.831470
v 0.707107 0.000000 0.707107
v 0.831470 0.000000 0.555570
v 0.923880 0.000000 0.382683
v 0.980785 0.000000 0.195090
v 1.000000 0.000000 0.000000
v 0.980785 0.000000 -0.195090
v 0.923880 0.000000 -0.382683
v 0.831470 0.000000 -0.555570
v 0.707107 0.000000 -0.707107
v 0.555570 0.000000 -0.831470
v 0.382683 0.000000 -0.923880
v 0.195090 0.000000 -0.980785
v 0.000000 0.000000 -1.000000
v -0.195090 0.000000 -0.980785
v -0.382683 0.000000 -0.923880
v -0.555570 0.000000 -0.831470
v -0.707107 0.000000 -0.707107
v -0.831470 0.000000 -0.555570
v -0.923880 0.000000 -0.382683
v -0.980785 0.000000 -0.195090
v -1.000000 0.000000 0.000000
v -0.980785 0.000000 0.195090
v -0.923880 0.000000 0.382683
v -0.831470 0.000000 0.555570
v -0.707107 0.000000 0.707107
v -0.555570 0.000000 0.831470
v -0.382683 0.000000 0.923880
v -0.195090 0.000000 0.980785
v 0.000000 0.000000 1.000000
v 0.195090 0.000000 0.980785
v 0.382683 0.000000 0.923880
v 0.555570 0.000000 0.831470
v 0.707107 0.000000 0.707107
v 0.831470 0.000000 0.555570
v 0.923880 0.000000 0.382683
v 0.980785 0.000000 0.195090
v 1.000000 0.000000 0.000000
v 0.980785 0.000000 -0.195090
v 0.923880 0.000000 -0.382683
v 0.831470 0.000000 -0.555570
v 0.707107 0.000000 -0.707107
v 0.555570 0.000000 -0.831470
v 0.382683 0.000000 -0.923880
v 0.195090 0.000000 -0.980785
v -0.238750 2.091292 0.000000
v -1.000000 1.330042 0.000000
v 0.238750 2.091292 0.000000
v 1.000000 1.330042 0.000000
v 0.000000 2.091292 -0.238750
v 0.000000 1.330042 -1.000000
v 0.000000 2.091292 0.238750
v 0.000000 1.330042 1.000000
v -0.238750 3.166338 0.238750
v -0.238750 3.166338 -0.238750
v 0.238750 3.166338 0.238750
v 0.238750 3.166338 -0.238750
v -0.238750 3.166338 0.000000
v 0.238750 3.166338 0.000000
v 0.000000 3.166338 -0.238750
v 0.000000 3.166338 0.238750
v 0.000000 3.166338 0.000000
vn -1.0000 -0.0000 -0.0000
vn -0.0000 -0.0000 -1.0000
vn -0.0000 -0.0000 1.0000
vn -0.0000 -1.0000 -0.0000
vn -0.0000 1.0000 -0.0000
vn 1.0000 -0.0000 -0.0000
vn -0.7071 0.7071 -0.0000
vn -0.0000 0.7071 -0.7071
vn 0.7071 0.7071 -0.0000
vn -0.0000 0.7071 0.7071
vt 0.375000 0.000000
vt 0.625000 0.000000
vt 0.625000 0.250000
vt 0.375000 0.250000
vt 0.625000 0.500000
vt 0.375000 0.500000
vt 0.375000 0.750000
vt 0.625000 0.750000
vt 0.625000 1.000000
vt 0.375000 1.000000
vt 0.125000 0.500000
vt 0.125000 0.750000
vt 0.750000 0.654844
vt 0.720156 0.654844
vt 0.875000 0.500000
vt 0.875000 0.750000
vt 0.000000 1.000000
vt 1.000000 1.000000
vt 0.779844 0.625000
vt 0.779844 0.595156
vt 0.875000 0.625000
vt 0.750000 0.595156
vt 0.720156 0.595156
vt 0.750000 0.500000
vt 0.720156 0.625000
vt 0.625000 0.625000
vt 0.779844 0.654844
vt 0.750000 0.750000
vt 0.000000 0.000000
vt 0.750000 0.625000
s 0
usemtl Material.001
f 1/1/1 2/2/1 4/3/1 3/4/1
f 3/4/2 4/3/2 17/5/2 18/6/2
f 19/7/3 20/8/3 2/9/3 1/10/3
f 3/11/4 18/6/4 19/7/4 1/12/4
f 49/1/5 50/2/5 48/3/5 47/4/5
f 16/4/5 15/3/5 13/5/5 14/6/5
f 20/8/6 17/5/6 10/5/6 12/8/6
f 17/5/2 4/3/2 9/3/2 10/5/2
f 14/6/5 13/5/5 50/8/5 49/7/5
f 2/9/3 20/8/3 12/8/3 11/9/3
f 47/7/5 48/8/5 15/9/5 16/10/5
f 14/11/5 49/6/5 47/7/5 16/12/5
f 161/13/3 43/14/3 165/14/3 170/13/3
f 8/5/5 7/6/5 18/6/5 17/5/5
f 7/6/5 5/7/5 19/7/5 18/6/5
f 6/8/5 8/5/5 17/5/5 20/8/5
f 5/7/5 6/8/5 20/8/5 19/7/5
f 22/11/1 27/6/1 25/7/1 24/12/1
f 29/17/5 30/18/5 32/18/5 31/17/5
f 32/18/5 30/18/5 33/18/5 34/18/5
f 23/16/5 21/15/5 36/15/5 35/16/5
f 21/15/5 28/5/5 37/5/5 36/15/5
f 28/5/5 26/8/5 38/8/5 37/5/5
f 26/8/5 23/16/5 35/16/5 38/8/5
f 155/19/7 41/20/7 42/15/7 156/21/7
f 159/22/8 45/23/8 46/5/8 160/24/8
f 157/25/9 43/14/9 44/8/9 158/26/9
f 161/13/10 40/27/10 39/16/10 162/28/10
f 4/3/1 2/2/1 11/2/1 9/3/1
f 50/5/5 13/15/5 15/16/5 48/8/5
f 56/11/1 58/6/1 57/7/1 55/12/1
f 54/6/2 53/7/2 57/7/2 58/6/2
f 51/12/3 52/11/3 56/11/3 55/12/3
f 53/7/4 51/12/4 55/12/4 57/7/4
f 52/11/5 54/6/5 58/6/5 56/11/5
f 20/29/1 24/29/1 19/29/1
f 24/29/1 25/29/1 19/29/1
f 17/29/1 54/29/1 52/29/1
f 25/29/1 17/29/1 18/29/1
f 20/29/1 22/29/1 24/29/1
f 27/29/1 17/29/1 25/29/1
f 20/29/1 51/29/1 22/29/1
f 51/29/1 27/29/1 22/29/1
f 51/29/1 53/29/1 27/29/1
f 53/29/1 17/29/1 27/29/1
f 20/29/1 52/29/1 51/29/1
f 54/29/1 17/29/1 53/29/1
f 20/29/1 17/29/1 52/29/1
f 25/29/1 18/29/1 19/29/1
f 45/23/9 157/25/9 158/26/9 46/5/9
f 40/27/7 155/19/7 156/21/7 39/16/7
f 43/14/6 157/25/6 168/25/6 165/14/6
f 155/19/1 40/27/1 163/27/1 167/19/1
f 43/14/10 161/13/10 162/28/10 44/8/10
f 41/20/8 159/22/8 160/24/8 42/15/8
f 157/25/6 45/23/6 166/23/6 168/25/6
f 171/30/5 167/19/5 163/27/5 170/13/5
f 169/22/5 164/20/5 167/19/5 171/30/5
f 166/23/5 169/22/5 171/30/5 168/25/5
f 168/25/5 171/30/5 170/13/5 165/14/5
f 159/22/2 41/20/2 164/20/2 169/22/2
f 41/20/1 155/19/1 167/19/1 164/20/1
f 40/27/3 161/13/3 170/13/3 163/27/3
f 45/23/2 159/22/2 169/22/2 166/23/2
usemtl Material.002
f 24/1/3 35/2/3 36/3/3 22/4/3
f 22/4/5 36/3/5 37/5/5 27/6/5
f 27/6/2 37/5/2 38/8/2 25/7/2
f 25/7/4 38/8/4 35/9/4 24/10/4
f 28/5/6 21/15/6 23/16/6 26/8/6
l 60 59
l 61 60
l 62 61
l 63 62
l 64 63
l 65 64
l 66 65
l 67 66
l 68 67
l 69 68
l 70 69
l 71 70
l 72 71
l 73 72
l 74 73
l 75 74
l 76 75
l 77 76
l 78 77
l 79 78
l 80 79
l 81 80
l 82 81
l 83 82
l 84 83
l 85 84
l 86 85
l 87 86
l 88 87
l 89 88
l 90 89
l 59 90
l 92 91
l 93 92
l 94 93
l 95 94
l 96 95
l 97 96
l 98 97
l 99 98
l 100 99
l 101 100
l 102 101
l 103 102
l 104 103
l 105 104
l 106 105
l 107 106
l 108 107
l 109 108
l 110 109
l 111 110
l 112 111
l 113 112
l 114 113
l 115 114
l 116 115
l 117 116
l 118 117
l 119 118
l 120 119
l 121 120
l 122 121
l 91 122
l 124 123
l 125 124
l 126 125
l 127 126
l 128 127
l 129 128
l 130 129
l 131 130
l 132 131
l 133 132
l 134 133
l 135 134
l 136 135
l 137 136
l 138 137
l 139 138
l 140 139
l 141 140
l 142 141
l 143 142
l 144 143
l 145 144
l 146 145
l 147 146
l 148 147
l 149 148
l 150 149
l 151 150
l 152 151
l 153 152
l 154 153
l 123 154
